# xmcd CD database file
#
# Track frame offsets:
#	150
#	26115
#	46445
#	60605
#	74952
#	102690
#	109195
#	156410
#	176545
#
# Disc length: 2711 seconds
#
# Revision: 7
# Processed by: cddbd v1.5.2PL0 Copyright (c) Steve Scherf et al.
# Submitted via: CDex 1.77
#
DISCID=8a0a9509
DTITLE=Carlos Santana - Blues for Salvador
DYEAR=1987
DGENRE=Rock
TTITLE0=Bailando - Bailando - Aquatic park
TTITLE1=Bella
TTITLE2=I'm gone
TTITLE3='Trane
TTITLE4=Deeper, dig deeper
TTITLE5=Mingus
TTITLE6=Now that you know
TTITLE7=Hannibal
TTITLE8=Blues for Salvador
EXTD=YEAR: 1987
EXTT0=
EXTT1=
EXTT2=
EXTT3=
EXTT4=
EXTT5=
EXTT6=
EXTT7=
EXTT8=
PLAYORDER=
